<svg xmlns="http://www.w3.org/2000/svg" version="1.1" xmlns:xlink="http://www.w3.org/1999/xlink" xmlns:svgjs="http://svgjs.dev/svgjs" width="1000" height="184" viewBox="0 0 1000 184"><g transform="matrix(1,0,0,1,-0.6056348047761162,-0.011870330106006577)"><svg viewBox="0 0 396 73" data-background-color="#ffffff" preserveAspectRatio="xMidYMid meet" height="184" width="1000" xmlns="http://www.w3.org/2000/svg" xmlns:xlink="http://www.w3.org/1999/xlink"><g id="tight-bounds" transform="matrix(1,0,0,1,0.24008861730862918,0.004709424444229171)"><svg viewBox="0 0 395.52 72.99058115111154" height="72.99058115111154" width="395.52"><g><svg viewBox="0 0 395.52 72.99058115111154" height="72.99058115111154" width="395.52"><g><svg viewBox="0 0 395.52 72.99058115111154" height="72.99058115111154" width="395.52"><g id="textblocktransform"><svg viewBox="0 0 395.52 72.99058115111154" height="72.99058115111154" width="395.52" id="textblock"><g><svg viewBox="0 0 395.52 72.99058115111154" height="72.99058115111154" width="395.52"><path d="M394.594 15.655C392.735 8.079 387.435 5.972 387.435 5.972 371.165-1.831 350.86-0.149 332.619 0.972 300.414 1.017 268.339 2.684 236.208 3.578 168.767 3.715 100.749 1.472 33.643 7.003 27.339 8.7-6.54 7.336 1.121 16.625 3.129 20.489 10.456 24.777 10.232 28.323 11.236 28.944 12.631 27.52 13.226 28.414 15.309 30.823 18.711 29.687 21.501 31.111 17.614 34.914 20.403 38.081 23.062 41.4 18.377 42.263 12.371 41.854 9.675 44.718 9.396 46.794 7.89 46.4 6.235 46.309 5.026 46.249 2.59 46.476 2.999 47.127 4.394 49.355-1.594 50.643 2.162 52.825-0.422 55.189 3.948 57.234 3.353 59.795 3.278 60.31 3.687 60.75 4.338 60.871 7.22 61.523 3.018 62.795 3.464 64.174 33.029 73.599 65.104 67.084 95.394 71.417 103.259 68.387 97.346 72.493 100.489 71.857 102.943 71.114 104.728 74.19 107.499 72.448 107.927 71.948 107.276 70.766 108.8 70.993 109.6 71.114 110.307 71.084 110.418 70.387 110.586 69.341 109.117 69.993 108.726 69.448 112.947 66.69 111.906 73.251 115.866 72.978 115.68 72.175 114.528 71.023 116.889 71.175 119.232 70.023 119.306 69.069 121.389 71.66 121.463 72.22 121.835 72.614 122.43 72.887 128.938 70.069 135.409 73.887 142.233 72.614 146.417 71.22 150.433 73.372 154.672 72.842 156.16 72.417 157.666 71.66 159.098 72.933 176.632 73.205 195.319 72.069 211.943 72.978 256.364 71.281 303.835 73.675 350.674 71.433 361.719 70.569 373.192 69.341 383.958 68.356 383.958 68.356 392.679 65.659 392.679 53.537S394.538 42.93 394.817 33.278C395.096 23.625 396.398 23.231 394.538 15.655Z" opacity="1" fill="#233565" data-fill-palette-color="tertiary"></path><g transform="matrix(1,0,0,1,55.76832,26.230666666666668)"><svg width="283.98335999999995" viewBox="2.6100001335144043 -36.060001373291016 505.8700256347656 36.56999969482422" height="20.529247817778202" data-palette-color="#ffffff"><path d="M14.58 0.51L14.58 0.51Q11.52 0.51 8.48-0.42 5.44-1.34 2.61-3.3L2.61-3.3 2.61-10.18 5.05-10.18 5.42-4.64Q7.57-3.3 9.89-2.64 12.21-1.98 14.58-1.98L14.58-1.98Q17.38-1.98 19.47-2.84 21.56-3.71 22.72-5.26 23.88-6.81 23.88-8.84L23.88-8.84Q23.88-10.79 22.94-12.27 22-13.75 19.89-14.87 17.77-15.99 14.16-16.92L14.16-16.92Q10.28-17.92 7.82-19.26 5.37-20.61 4.21-22.5 3.05-24.39 3.05-27L3.05-27Q3.05-29.66 4.47-31.7 5.88-33.74 8.44-34.9 10.99-36.06 14.38-36.06L14.38-36.06Q17.97-36.06 20.79-34.99 23.61-33.91 25.56-32.23L25.56-32.23 25.56-25.88 23.14-25.88 22.78-30.91Q21.24-32.15 19.14-32.86 17.04-33.57 14.38-33.57L14.38-33.57Q11.77-33.57 9.89-32.7 8.01-31.84 6.99-30.37 5.98-28.91 5.98-27.05L5.98-27.05Q5.98-25.27 6.79-23.91 7.59-22.56 9.57-21.52 11.55-20.48 15.11-19.53L15.11-19.53Q20.9-18.04 23.85-15.52 26.81-12.99 26.81-8.89L26.81-8.89Q26.81-6.05 25.26-3.94 23.71-1.83 20.95-0.66 18.19 0.51 14.58 0.51ZM57.27 0L31 0 31-2.12 34.98-2.44 34.98-33.08 31-33.4 31-35.55 56.54-35.55 56.54-27.76 54.05-27.76 53.81-33.13 37.91-33.13 37.91-19.68 52.24-19.68 52.24-17.24 37.91-17.24 37.91-2.37 54.56-2.37 54.81-7.79 57.27-7.79 57.27 0ZM73.33 0L62.45 0 62.45-2.12 66.43-2.44 66.43-33.08 62.45-33.4 62.45-35.55 66.43-35.55 69.38-35.55 89.69-4.98 89.84-5.03 89.84-33.08 85.69-33.4 85.69-35.55 92.6-35.55 96.58-35.55 96.58-33.4 92.6-33.08 92.6 0 89.86 0 69.33-30.69 69.18-30.64 69.18-2.44 73.33-2.12 73.33 0ZM113.03 0.51L113.03 0.51Q109.98 0.51 106.94-0.42 103.9-1.34 101.07-3.3L101.07-3.3 101.07-10.18 103.51-10.18 103.87-4.64Q106.02-3.3 108.34-2.64 110.66-1.98 113.03-1.98L113.03-1.98Q115.84-1.98 117.92-2.84 120.01-3.71 121.17-5.26 122.33-6.81 122.33-8.84L122.33-8.84Q122.33-10.79 121.39-12.27 120.45-13.75 118.34-14.87 116.23-15.99 112.61-16.92L112.61-16.92Q108.73-17.92 106.28-19.26 103.83-20.61 102.67-22.5 101.51-24.39 101.51-27L101.51-27Q101.51-29.66 102.92-31.7 104.34-33.74 106.89-34.9 109.44-36.06 112.83-36.06L112.83-36.06Q116.42-36.06 119.24-34.99 122.06-33.91 124.02-32.23L124.02-32.23 124.02-25.88 121.6-25.88 121.23-30.91Q119.69-32.15 117.6-32.86 115.5-33.57 112.83-33.57L112.83-33.57Q110.22-33.57 108.34-32.7 106.46-31.84 105.45-30.37 104.44-28.91 104.44-27.05L104.44-27.05Q104.44-25.27 105.24-23.91 106.05-22.56 108.02-21.52 110-20.48 113.57-19.53L113.57-19.53Q119.35-18.04 122.31-15.52 125.26-12.99 125.26-8.89L125.26-8.89Q125.26-6.05 123.71-3.94 122.16-1.83 119.4-0.66 116.64 0.51 113.03 0.51ZM144.94 0.51L144.94 0.51Q141.57 0.51 138.83-0.78 136.1-2.08 134.15-4.47 132.19-6.86 131.14-10.17 130.09-13.48 130.09-17.53L130.09-17.53 130.09-17.99Q130.09-22.05 131.13-25.35 132.17-28.66 134.12-31.07 136.07-33.47 138.81-34.77 141.54-36.06 144.91-36.06L144.91-36.06Q148.35-36.06 151.1-34.77 153.85-33.47 155.79-31.07 157.73-28.66 158.74-25.35 159.76-22.05 159.76-17.99L159.76-17.99 159.76-17.53Q159.76-13.48 158.74-10.17 157.73-6.86 155.8-4.47 153.87-2.08 151.13-0.78 148.38 0.51 144.94 0.51ZM144.94-2.05L144.94-2.05Q148.79-2.05 151.44-3.98 154.09-5.91 155.46-9.4 156.83-12.89 156.83-17.53L156.83-17.53 156.83-18.04Q156.83-22.68 155.45-26.15 154.07-29.61 151.41-31.56 148.74-33.5 144.91-33.5L144.91-33.5Q141.23-33.5 138.56-31.56 135.9-29.61 134.47-26.14 133.05-22.66 133.05-18.04L133.05-18.04 133.05-17.53Q133.05-12.89 134.47-9.4 135.9-5.91 138.58-3.98 141.25-2.05 144.94-2.05ZM175.13 0.02L164.25 0.02 164.25-2.12 168.22-2.44 168.22-33.08 164.25-33.4 164.25-35.52 179.24-35.52Q183.04-35.52 185.68-34.4 188.32-33.28 189.7-31.13 191.08-28.98 191.08-25.83L191.08-25.83Q191.08-22.78 189.65-20.68 188.22-18.58 185.64-17.49 183.07-16.41 179.6-16.38L179.6-16.38 171.15-16.31 171.15-2.44 175.13-2.12 175.13 0.02ZM193.13 0.02L188.15 0.02 180.51-17.63 183.43-17.65 190.22-2.34 193.13-2.15 193.13 0.02ZM171.15-33.08L171.15-18.75 178.94-18.75Q183.7-18.75 185.93-20.7 188.15-22.66 188.15-25.85L188.15-25.85Q188.15-29.3 185.93-31.19 183.7-33.08 179.24-33.08L179.24-33.08 171.15-33.08ZM223.84 0L209.97 0 209.97-2.12 213.95-2.44 213.95-33.08 209.97-33.4 209.97-35.55 213.95-35.55 223.71-35.55Q228.25-35.55 231.7-33.29 235.14-31.03 237.1-27.09 239.07-23.14 239.07-18.07L239.07-18.07 239.07-17.48Q239.07-12.43 237.14-8.48 235.21-4.54 231.78-2.27 228.35 0 223.84 0L223.84 0ZM216.88-33.08L216.88-2.44 223.71-2.44Q227.42-2.44 230.21-4.43 232.99-6.42 234.57-9.83 236.14-13.23 236.14-17.48L236.14-17.48 236.14-18.12Q236.14-22.41 234.57-25.79 232.99-29.17 230.21-31.13 227.42-33.08 223.71-33.08L223.71-33.08 216.88-33.08ZM250.05 0L241.29 0 241.29-2.12 243.9-2.29 256.52-35.55 259.31-35.55 271.83-2.29 274.44-2.12 274.44 0 265.68 0 265.68-2.12 268.8-2.34 265.85-10.38 249.91-10.38 246.93-2.34 250.05-2.12 250.05 0ZM257.33-30.4L250.86-12.94 264.9-12.94 258.48-30.4 257.99-31.84 257.84-31.84 257.33-30.4ZM290.97 0.51L290.97 0.51Q287.92 0.51 284.88-0.42 281.84-1.34 279.01-3.3L279.01-3.3 279.01-10.18 281.45-10.18 281.81-4.64Q283.96-3.3 286.28-2.64 288.6-1.98 290.97-1.98L290.97-1.98Q293.78-1.98 295.86-2.84 297.95-3.71 299.11-5.26 300.27-6.81 300.27-8.84L300.27-8.84Q300.27-10.79 299.33-12.27 298.39-13.75 296.28-14.87 294.17-15.99 290.55-16.92L290.55-16.92Q286.67-17.92 284.22-19.26 281.76-20.61 280.6-22.5 279.45-24.39 279.45-27L279.45-27Q279.45-29.66 280.86-31.7 282.28-33.74 284.83-34.9 287.38-36.06 290.77-36.06L290.77-36.06Q294.36-36.06 297.18-34.99 300-33.91 301.96-32.23L301.96-32.23 301.96-25.88 299.54-25.88 299.17-30.91Q297.63-32.15 295.53-32.86 293.43-33.57 290.77-33.57L290.77-33.57Q288.16-33.57 286.28-32.7 284.4-31.84 283.39-30.37 282.37-28.91 282.37-27.05L282.37-27.05Q282.37-25.27 283.18-23.91 283.99-22.56 285.96-21.52 287.94-20.48 291.51-19.53L291.51-19.53Q297.29-18.04 300.25-15.52 303.2-12.99 303.2-8.89L303.2-8.89Q303.2-6.05 301.65-3.94 300.1-1.83 297.34-0.66 294.58 0.51 290.97 0.51ZM318.29 0L307.4 0 307.4-2.12 311.38-2.44 311.38-33.08 307.4-33.4 307.4-35.55 318.29-35.55 318.29-33.4 314.31-33.08 314.31-18.85 334.37-18.85 334.37-33.08 330.39-33.4 330.39-35.55 334.37-35.55 337.3-35.55 341.28-35.55 341.28-33.4 337.3-33.08 337.3-2.44 341.28-2.12 341.28 0 330.39 0 330.39-2.12 334.37-2.44 334.37-16.38 314.31-16.38 314.31-2.44 318.29-2.12 318.29 0ZM361.13 0L344.97 0 344.97-2.12 348.95-2.44 348.95-33.08 344.97-33.4 344.97-35.55 348.95-35.55 359.2-35.55Q364.74-35.55 367.84-33.22 370.94-30.88 370.94-26.2L370.94-26.2Q370.94-23.41 369.37-21.37 367.79-19.34 365.04-18.63L365.04-18.63Q367.23-18.26 368.91-17.02 370.58-15.77 371.52-13.93 372.46-12.08 372.46-9.91L372.46-9.91Q372.46-5.13 369.37-2.56 366.28 0 361.13 0L361.13 0ZM351.88-17.14L351.88-2.44 361.13-2.44Q365.06-2.44 367.29-4.39 369.53-6.35 369.53-9.86L369.53-9.86Q369.53-11.99 368.62-13.64 367.72-15.28 365.94-16.21 364.16-17.14 361.59-17.14L361.59-17.14 351.88-17.14ZM351.88-33.08L351.88-19.6 360.06-19.6Q363.86-19.6 365.93-21.31 367.99-23.02 367.99-26.29L367.99-26.29Q367.99-29.69 365.76-31.38 363.52-33.08 359.2-33.08L359.2-33.08 351.88-33.08ZM391.74 0.51L391.74 0.51Q388.37 0.51 385.64-0.78 382.9-2.08 380.95-4.47 379-6.86 377.95-10.17 376.9-13.48 376.9-17.53L376.9-17.53 376.9-17.99Q376.9-22.05 377.94-25.35 378.97-28.66 380.93-31.07 382.88-33.47 385.61-34.77 388.35-36.06 391.72-36.06L391.72-36.06Q395.16-36.06 397.91-34.77 400.65-33.47 402.59-31.07 404.54-28.66 405.55-25.35 406.56-22.05 406.56-17.99L406.56-17.99 406.56-17.53Q406.56-13.48 405.55-10.17 404.54-6.86 402.61-4.47 400.68-2.08 397.93-0.78 395.18 0.51 391.74 0.51ZM391.74-2.05L391.74-2.05Q395.6-2.05 398.25-3.98 400.9-5.91 402.26-9.4 403.63-12.89 403.63-17.53L403.63-17.53 403.63-18.04Q403.63-22.68 402.25-26.15 400.87-29.61 398.21-31.56 395.55-33.5 391.72-33.5L391.72-33.5Q388.03-33.5 385.37-31.56 382.71-29.61 381.28-26.14 379.85-22.66 379.85-18.04L379.85-18.04 379.85-17.53Q379.85-12.89 381.28-9.4 382.71-5.91 385.38-3.98 388.06-2.05 391.74-2.05ZM417.64 0L408.88 0 408.88-2.12 411.49-2.29 424.11-35.55 426.9-35.55 439.42-2.29 442.03-2.12 442.03 0 433.27 0 433.27-2.12 436.39-2.34 433.44-10.38 417.5-10.38 414.52-2.34 417.64-2.12 417.64 0ZM424.92-30.4L418.45-12.94 432.49-12.94 426.07-30.4 425.58-31.84 425.43-31.84 424.92-30.4ZM456.73 0.02L445.84 0.02 445.84-2.12 449.82-2.44 449.82-33.08 445.84-33.4 445.84-35.52 460.83-35.52Q464.64-35.52 467.27-34.4 469.91-33.28 471.29-31.13 472.67-28.98 472.67-25.83L472.67-25.83Q472.67-22.78 471.24-20.68 469.81-18.58 467.24-17.49 464.66-16.41 461.2-16.38L461.2-16.38 452.75-16.31 452.75-2.44 456.73-2.12 456.73 0.02ZM474.72 0.02L469.74 0.02 462.1-17.63 465.03-17.65 471.82-2.34 474.72-2.15 474.72 0.02ZM452.75-33.08L452.75-18.75 460.54-18.75Q465.3-18.75 467.52-20.7 469.74-22.66 469.74-25.85L469.74-25.85Q469.74-29.3 467.52-31.19 465.3-33.08 460.83-33.08L460.83-33.08 452.75-33.08ZM493.25 0L479.38 0 479.38-2.12 483.36-2.44 483.36-33.08 479.38-33.4 479.38-35.55 483.36-35.55 493.13-35.55Q497.67-35.55 501.11-33.29 504.55-31.03 506.52-27.09 508.48-23.14 508.48-18.07L508.48-18.07 508.48-17.48Q508.48-12.43 506.55-8.48 504.63-4.54 501.2-2.27 497.77 0 493.25 0L493.25 0ZM486.29-33.08L486.29-2.44 493.13-2.44Q496.84-2.44 499.62-4.43 502.4-6.42 503.98-9.83 505.55-13.23 505.55-17.48L505.55-17.48 505.55-18.12Q505.55-22.41 503.98-25.79 502.4-29.17 499.62-31.13 496.84-33.08 493.13-33.08L493.13-33.08 486.29-33.08Z" opacity="1" transform="matrix(1,0,0,1,0,0)" fill="#ffffff" class="wordmark-text-0" data-fill-palette-color="quaternary" id="text-0"></path></svg></g></svg></g></svg></g></svg></g><g></g></svg></g><defs></defs></svg><rect width="395.52" height="72.99058115111154" fill="none" stroke="none" visibility="hidden"></rect></g></svg></g></svg>